<svg xmlns="http://www.w3.org/2000/svg" width="512" height="512" viewBox="0 0 512 512" role="img" aria-label="Hibiki Mattermost bot avatar">
  <defs>
    <linearGradient id="hibiki-bg" x1="0" y1="0" x2="1" y2="1">
      <stop offset="0%" stop-color="#1a0812" />
      <stop offset="52%" stop-color="#8a2c22" />
      <stop offset="100%" stop-color="#ffbd45" />
    </linearGradient>
    <linearGradient id="hibiki-bar" x1="0" y1="0" x2="0" y2="1">
      <stop offset="0%" stop-color="#fff2cb" />
      <stop offset="100%" stop-color="#ff8b47" />
    </linearGradient>
    <filter id="hibiki-shadow" x="-20%" y="-20%" width="160%" height="160%">
      <feDropShadow dx="0" dy="14" stdDeviation="18" flood-color="#19060a" flood-opacity="0.38" />
    </filter>
  </defs>

  <rect width="512" height="512" rx="128" fill="url(#hibiki-bg)" />
  <circle cx="256" cy="256" r="188" fill="none" stroke="#fff6eb" stroke-opacity="0.14" stroke-width="12" />
  <circle cx="256" cy="256" r="158" fill="none" stroke="#fff6eb" stroke-opacity="0.18" stroke-width="6" stroke-dasharray="12 18" />

  <rect x="126" y="244" width="56" height="136" rx="28" fill="url(#hibiki-bar)" filter="url(#hibiki-shadow)" />
  <rect x="228" y="156" width="56" height="224" rx="28" fill="url(#hibiki-bar)" filter="url(#hibiki-shadow)" />
  <rect x="330" y="206" width="56" height="174" rx="28" fill="url(#hibiki-bar)" filter="url(#hibiki-shadow)" />

  <path d="M110 314 C156 314 182 214 228 214 C268 214 278 286 326 286 C354 286 378 180 402 180" fill="none" stroke="#fff4cf" stroke-width="20" stroke-linecap="round" stroke-linejoin="round" filter="url(#hibiki-shadow)" />
  <circle cx="228" cy="214" r="12" fill="#fff6da" />
  <circle cx="326" cy="286" r="12" fill="#ff8f77" />
  <circle cx="402" cy="180" r="12" fill="#fff6da" />

  <path d="M364 122 L388 146 M388 122 L364 146" fill="none" stroke="#fff0bf" stroke-width="10" stroke-linecap="round" />
  <circle cx="146" cy="196" r="10" fill="#ffae61" />
  <circle cx="360" cy="392" r="10" fill="#ffd88b" />
  <circle cx="404" cy="340" r="8" fill="#fff1d0" />
</svg>