<svg xmlns="http://www.w3.org/2000/svg" width="512" height="512" viewBox="0 0 512 512" role="img" aria-label="Kanae Mattermost bot avatar">
  <defs>
    <linearGradient id="kanae-bg" x1="0" y1="0" x2="1" y2="1">
      <stop offset="0%" stop-color="#081410" />
      <stop offset="54%" stop-color="#13553f" />
      <stop offset="100%" stop-color="#8fe6b1" />
    </linearGradient>
    <linearGradient id="kanae-flask" x1="0" y1="0" x2="1" y2="1">
      <stop offset="0%" stop-color="#f2fff5" />
      <stop offset="100%" stop-color="#a8ffca" />
    </linearGradient>
    <filter id="kanae-shadow" x="-20%" y="-20%" width="160%" height="160%">
      <feDropShadow dx="0" dy="14" stdDeviation="18" flood-color="#030d09" flood-opacity="0.42" />
    </filter>
  </defs>

  <rect width="512" height="512" rx="128" fill="url(#kanae-bg)" />
  <circle cx="256" cy="256" r="186" fill="none" stroke="#f4fff7" stroke-opacity="0.14" stroke-width="12" />

  <path d="M204 96 H308 V152 L376 334 C398 390 356 436 298 436 H214 C156 436 114 390 136 334 L204 152 Z" fill="url(#kanae-flask)" filter="url(#kanae-shadow)" />
  <path d="M220 128 H292 V170 L352 332 C366 368 342 404 300 404 H212 C170 404 146 368 160 332 L220 170 Z" fill="#0d2f24" fill-opacity="0.78" />
  <path d="M166 336 C194 306 226 292 256 292 C290 292 320 308 346 336 V392 H166 Z" fill="#6cf3b1" opacity="0.92" />
  <path d="M204 314 L244 354 L320 262" fill="none" stroke="#f6fff8" stroke-width="20" stroke-linecap="round" stroke-linejoin="round" />
  <path d="M188 112 H324" fill="none" stroke="#dfffea" stroke-width="12" stroke-linecap="round" />

  <circle cx="196" cy="232" r="10" fill="#dfffea" />
  <circle cx="318" cy="218" r="8" fill="#baf7d1" />
  <circle cx="334" cy="252" r="10" fill="#dfffea" />
  <circle cx="178" cy="268" r="8" fill="#baf7d1" />
</svg>