<svg xmlns="http://www.w3.org/2000/svg" width="512" height="512" viewBox="0 0 512 512" role="img" aria-label="Minimax Mattermost bot avatar">
  <defs>
    <linearGradient id="minimax-bg" x1="0" y1="0" x2="1" y2="1">
      <stop offset="0%" stop-color="#1a0d0a" />
      <stop offset="54%" stop-color="#7d3d21" />
      <stop offset="100%" stop-color="#e2a66d" />
    </linearGradient>
    <linearGradient id="minimax-metal" x1="0" y1="0" x2="1" y2="1">
      <stop offset="0%" stop-color="#fff0d8" />
      <stop offset="100%" stop-color="#ffbd77" />
    </linearGradient>
    <filter id="minimax-shadow" x="-20%" y="-20%" width="160%" height="160%">
      <feDropShadow dx="0" dy="14" stdDeviation="18" flood-color="#140905" flood-opacity="0.38" />
    </filter>
  </defs>

  <rect width="512" height="512" rx="128" fill="url(#minimax-bg)" />
  <circle cx="256" cy="256" r="186" fill="none" stroke="#fff3e4" stroke-opacity="0.14" stroke-width="12" />
  <path d="M256 132 V360" fill="none" stroke="url(#minimax-metal)" stroke-width="26" stroke-linecap="round" filter="url(#minimax-shadow)" />
  <path d="M146 196 H366" fill="none" stroke="url(#minimax-metal)" stroke-width="22" stroke-linecap="round" filter="url(#minimax-shadow)" />
  <circle cx="256" cy="196" r="20" fill="#fff6e7" />
  <circle cx="256" cy="196" r="8" fill="#d48a46" />
  <path d="M176 196 V248 M336 196 V248" fill="none" stroke="#ffe4bc" stroke-width="10" stroke-linecap="round" />
  <path d="M130 248 H222 C220 296 204 330 176 352 C148 330 132 296 130 248 Z" fill="url(#minimax-metal)" filter="url(#minimax-shadow)" />
  <path d="M290 248 H382 C380 296 364 330 336 352 C308 330 292 296 290 248 Z" fill="url(#minimax-metal)" filter="url(#minimax-shadow)" />
  <path d="M154 276 H198" fill="none" stroke="#8f4c25" stroke-width="8" stroke-linecap="round" opacity="0.62" />
  <path d="M314 276 H358" fill="none" stroke="#8f4c25" stroke-width="8" stroke-linecap="round" opacity="0.62" />
  <circle cx="176" cy="392" r="12" fill="#ffd79b" />
  <circle cx="336" cy="392" r="12" fill="#fff0d4" />
</svg>