<svg xmlns="http://www.w3.org/2000/svg" width="512" height="512" viewBox="0 0 512 512" role="img" aria-label="Qwen Mattermost bot avatar">
  <defs>
    <linearGradient id="qwen-bg" x1="0" y1="0" x2="1" y2="1">
      <stop offset="0%" stop-color="#061426" />
      <stop offset="54%" stop-color="#0f4f87" />
      <stop offset="100%" stop-color="#78cfff" />
    </linearGradient>
    <linearGradient id="qwen-arch" x1="0" y1="0" x2="1" y2="1">
      <stop offset="0%" stop-color="#f0f9ff" />
      <stop offset="100%" stop-color="#8bd6ff" />
    </linearGradient>
    <filter id="qwen-shadow" x="-20%" y="-20%" width="160%" height="160%">
      <feDropShadow dx="0" dy="14" stdDeviation="18" flood-color="#04101c" flood-opacity="0.42" />
    </filter>
  </defs>

  <rect width="512" height="512" rx="128" fill="url(#qwen-bg)" />
  <path d="M104 144 H408 M104 208 H408 M104 304 H408 M152 104 V408 M256 88 V424 M360 104 V408" fill="none" stroke="#d9efff" stroke-opacity="0.12" stroke-width="8" stroke-linecap="round" />
  <circle cx="256" cy="256" r="186" fill="none" stroke="#f1f9ff" stroke-opacity="0.14" stroke-width="12" />
  <path d="M128 388 V316 C128 206 188 128 256 128 C324 128 384 206 384 316 V388" fill="none" stroke="url(#qwen-arch)" stroke-width="34" stroke-linecap="round" filter="url(#qwen-shadow)" />
  <path d="M176 388 V290 C176 222 212 178 256 178 C300 178 336 222 336 290 V388" fill="none" stroke="#edf8ff" stroke-opacity="0.44" stroke-width="18" stroke-linecap="round" />
  <rect x="228" y="248" width="56" height="140" rx="18" fill="#0b2648" fill-opacity="0.74" />
  <path d="M206 222 H306" fill="none" stroke="#b9e6ff" stroke-width="10" stroke-linecap="round" />
  <circle cx="256" cy="200" r="14" fill="#f2f9ff" />
  <circle cx="162" cy="332" r="10" fill="#93dcff" />
  <circle cx="350" cy="332" r="10" fill="#93dcff" />
</svg>