<svg xmlns="http://www.w3.org/2000/svg" width="512" height="512" viewBox="0 0 512 512" role="img" aria-label="Saku Mattermost bot avatar">
  <defs>
    <linearGradient id="saku-bg" x1="0" y1="0" x2="1" y2="1">
      <stop offset="0%" stop-color="#06080f" />
      <stop offset="55%" stop-color="#1b2432" />
      <stop offset="100%" stop-color="#445062" />
    </linearGradient>
    <linearGradient id="saku-eye" x1="0" y1="0" x2="1" y2="1">
      <stop offset="0%" stop-color="#f7fbff" />
      <stop offset="100%" stop-color="#a9b8cb" />
    </linearGradient>
    <filter id="saku-shadow" x="-20%" y="-20%" width="160%" height="160%">
      <feDropShadow dx="0" dy="14" stdDeviation="18" flood-color="#000000" flood-opacity="0.48" />
    </filter>
  </defs>

  <rect width="512" height="512" rx="128" fill="url(#saku-bg)" />
  <circle cx="256" cy="256" r="186" fill="none" stroke="#eff4ff" stroke-opacity="0.12" stroke-width="12" />

  <path d="M82 256 C130 174 206 132 256 132 C306 132 382 174 430 256 C382 338 306 380 256 380 C206 380 130 338 82 256 Z" fill="url(#saku-eye)" filter="url(#saku-shadow)" />
  <path d="M120 256 C162 202 214 176 256 176 C298 176 350 202 392 256 C350 310 298 336 256 336 C214 336 162 310 120 256 Z" fill="#091017" />
  <circle cx="256" cy="256" r="72" fill="#16202a" />
  <circle cx="256" cy="256" r="36" fill="#f8fbff" />
  <circle cx="256" cy="256" r="16" fill="#ff616b" />

  <path d="M116 256 H396" fill="none" stroke="#ff6b73" stroke-width="14" stroke-linecap="round" opacity="0.82" />
  <path d="M118 120 H170 M118 120 V172 M394 120 H342 M394 120 V172 M118 392 H170 M118 392 V340 M394 392 H342 M394 392 V340" fill="none" stroke="#dbe6f6" stroke-opacity="0.72" stroke-width="10" stroke-linecap="round" />
  <circle cx="138" cy="138" r="8" fill="#ff6b73" />
  <circle cx="374" cy="138" r="8" fill="#dbe6f6" />
  <circle cx="138" cy="374" r="8" fill="#dbe6f6" />
  <circle cx="374" cy="374" r="8" fill="#ff6b73" />
</svg>