<svg xmlns="http://www.w3.org/2000/svg" width="512" height="512" viewBox="0 0 512 512" role="img" aria-label="Tsumugi Mattermost bot avatar">
  <defs>
    <linearGradient id="tsumugi-bg" x1="0" y1="0" x2="1" y2="1">
      <stop offset="0%" stop-color="#291029" />
      <stop offset="52%" stop-color="#7d284d" />
      <stop offset="100%" stop-color="#ffb07c" />
    </linearGradient>
    <linearGradient id="tsumugi-a" x1="0" y1="0" x2="1" y2="1">
      <stop offset="0%" stop-color="#ffe0bc" />
      <stop offset="100%" stop-color="#ff9d72" />
    </linearGradient>
    <linearGradient id="tsumugi-b" x1="0" y1="0" x2="1" y2="1">
      <stop offset="0%" stop-color="#ffd9f6" />
      <stop offset="100%" stop-color="#ff7dbf" />
    </linearGradient>
    <linearGradient id="tsumugi-c" x1="0" y1="0" x2="1" y2="1">
      <stop offset="0%" stop-color="#fff6df" />
      <stop offset="100%" stop-color="#ffd779" />
    </linearGradient>
    <filter id="tsumugi-shadow" x="-20%" y="-20%" width="160%" height="160%">
      <feDropShadow dx="0" dy="14" stdDeviation="18" flood-color="#1f0a1d" flood-opacity="0.36" />
    </filter>
  </defs>

  <rect width="512" height="512" rx="128" fill="url(#tsumugi-bg)" />
  <circle cx="256" cy="256" r="188" fill="none" stroke="#fff5ea" stroke-opacity="0.14" stroke-width="12" />

  <ellipse cx="202" cy="256" rx="82" ry="150" transform="rotate(-36 202 256)" fill="none" stroke="url(#tsumugi-a)" stroke-width="54" stroke-linecap="round" filter="url(#tsumugi-shadow)" />
  <ellipse cx="310" cy="256" rx="82" ry="150" transform="rotate(36 310 256)" fill="none" stroke="url(#tsumugi-b)" stroke-width="54" stroke-linecap="round" filter="url(#tsumugi-shadow)" />
  <ellipse cx="256" cy="258" rx="72" ry="142" fill="none" stroke="url(#tsumugi-c)" stroke-width="46" stroke-linecap="round" filter="url(#tsumugi-shadow)" />

  <circle cx="256" cy="256" r="58" fill="#4b1538" fill-opacity="0.58" />
  <circle cx="256" cy="256" r="26" fill="#fff5df" />

  <path d="M124 160 L152 188" fill="none" stroke="#fff0d8" stroke-width="10" stroke-linecap="round" />
  <path d="M388 160 L360 188" fill="none" stroke="#ffd7ef" stroke-width="10" stroke-linecap="round" />
  <path d="M136 356 L160 332" fill="none" stroke="#ffd787" stroke-width="10" stroke-linecap="round" />
  <path d="M376 356 L352 332" fill="none" stroke="#fff0d8" stroke-width="10" stroke-linecap="round" />

  <circle cx="116" cy="152" r="10" fill="#fff1de" />
  <circle cx="396" cy="152" r="10" fill="#ffd9f5" />
  <circle cx="132" cy="368" r="10" fill="#ffd889" />
  <circle cx="380" cy="368" r="10" fill="#fff1de" />
</svg>